<svg width="145" height="21" viewBox="0 0 145 21" fill="none" xmlns="http://www.w3.org/2000/svg">
<path d="M0.932007 0.0078125V19.9998H5.32801V11.7398H13.7V8.32381H5.32801V3.70381H14.988V0.0078125H0.932007Z" fill="#412672"/>
<path d="M26.0137 11.2078H19.5457C19.5643 10.9278 19.6203 10.6105 19.7137 10.2558C19.8257 9.90115 20.003 9.56515 20.2457 9.24781C20.507 8.93048 20.843 8.66915 21.2537 8.46381C21.683 8.23981 22.215 8.12781 22.8497 8.12781C23.8203 8.12781 24.539 8.38915 25.0057 8.91181C25.491 9.43448 25.827 10.1998 26.0137 11.2078ZM19.5457 13.7278H29.9897C30.0643 12.6078 29.971 11.5345 29.7097 10.5078C29.4483 9.48115 29.019 8.56648 28.4217 7.76381C27.843 6.96115 27.0963 6.32648 26.1817 5.85981C25.267 5.37448 24.1937 5.13181 22.9617 5.13181C21.8603 5.13181 20.8523 5.32781 19.9377 5.71981C19.0417 6.11181 18.267 6.65315 17.6137 7.34381C16.9603 8.01581 16.4563 8.81848 16.1017 9.75181C15.747 10.6851 15.5697 11.6931 15.5697 12.7758C15.5697 13.8958 15.7377 14.9225 16.0737 15.8558C16.4283 16.7891 16.923 17.5918 17.5577 18.2638C18.1923 18.9358 18.967 19.4585 19.8817 19.8318C20.7963 20.1865 21.823 20.3638 22.9617 20.3638C24.6043 20.3638 26.0043 19.9905 27.1617 19.2438C28.319 18.4971 29.1777 17.2558 29.7377 15.5198H26.2377C26.107 15.9678 25.7523 16.3971 25.1737 16.8078C24.595 17.1998 23.9043 17.3958 23.1017 17.3958C21.9817 17.3958 21.123 17.1065 20.5257 16.5278C19.9283 15.9491 19.6017 15.0158 19.5457 13.7278Z" fill="#412672"/>
<path d="M31.3398 9.97581C31.3958 9.04248 31.6291 8.26781 32.0398 7.65181C32.4505 7.03581 32.9731 6.54115 33.6078 6.16781C34.2425 5.79448 34.9518 5.53315 35.7358 5.38381C36.5385 5.21581 37.3411 5.13181 38.1438 5.13181C38.8718 5.13181 39.6091 5.18781 40.3558 5.29981C41.1025 5.39315 41.7838 5.58915 42.3998 5.88781C43.0158 6.18648 43.5198 6.60648 43.9118 7.14781C44.3038 7.67048 44.4998 8.37048 44.4998 9.24781V16.7798C44.4998 17.4331 44.5371 18.0585 44.6118 18.6558C44.6865 19.2531 44.8171 19.7011 45.0038 19.9998H40.9718C40.8971 19.7758 40.8318 19.5518 40.7758 19.3278C40.7385 19.0851 40.7105 18.8425 40.6918 18.5998C40.0571 19.2531 39.3105 19.7105 38.4518 19.9718C37.5931 20.2331 36.7158 20.3638 35.8198 20.3638C35.1291 20.3638 34.4851 20.2798 33.8878 20.1118C33.2905 19.9438 32.7678 19.6825 32.3198 19.3278C31.8718 18.9731 31.5171 18.5251 31.2558 17.9838C31.0131 17.4425 30.8918 16.7985 30.8918 16.0518C30.8918 15.2305 31.0318 14.5585 31.3118 14.0358C31.6105 13.4945 31.9838 13.0651 32.4318 12.7478C32.8985 12.4305 33.4211 12.1971 33.9998 12.0478C34.5971 11.8798 35.1945 11.7491 35.7918 11.6558C36.3891 11.5625 36.9771 11.4878 37.5558 11.4318C38.1345 11.3758 38.6478 11.2918 39.0958 11.1798C39.5438 11.0678 39.8985 10.9091 40.1598 10.7038C40.4211 10.4798 40.5425 10.1625 40.5238 9.75181C40.5238 9.32248 40.4491 8.98648 40.2998 8.74381C40.1691 8.48248 39.9825 8.28648 39.7398 8.15581C39.5158 8.00648 39.2451 7.91315 38.9278 7.87581C38.6291 7.81981 38.3025 7.79181 37.9478 7.79181C37.1638 7.79181 36.5478 7.95981 36.0998 8.29581C35.6518 8.63181 35.3905 9.19181 35.3158 9.97581H31.3398ZM40.5238 12.9158C40.3558 13.0651 40.1411 13.1865 39.8798 13.2798C39.6371 13.3545 39.3665 13.4198 39.0678 13.4758C38.7878 13.5318 38.4891 13.5785 38.1718 13.6158C37.8545 13.6531 37.5371 13.6998 37.2198 13.7558C36.9211 13.8118 36.6225 13.8865 36.3238 13.9798C36.0438 14.0731 35.7918 14.2038 35.5678 14.3718C35.3625 14.5211 35.1945 14.7171 35.0638 14.9598C34.9331 15.2025 34.8678 15.5105 34.8678 15.8838C34.8678 16.2385 34.9331 16.5371 35.0638 16.7798C35.1945 17.0225 35.3718 17.2185 35.5958 17.3678C35.8198 17.4985 36.0811 17.5918 36.3798 17.6478C36.6785 17.7038 36.9865 17.7318 37.3038 17.7318C38.0878 17.7318 38.6945 17.6011 39.1238 17.3398C39.5531 17.0785 39.8705 16.7705 40.0758 16.4158C40.2811 16.0425 40.4025 15.6691 40.4398 15.2958C40.4958 14.9225 40.5238 14.6238 40.5238 14.3998V12.9158Z" fill="#412672"/>
<path d="M51.7859 5.52381V1.18381H47.8099V5.52381H45.4019V8.18381H47.8099V16.7238C47.8099 17.4518 47.9312 18.0398 48.1739 18.4878C48.4166 18.9358 48.7432 19.2811 49.1539 19.5238C49.5832 19.7665 50.0686 19.9251 50.6099 19.9998C51.1699 20.0931 51.7579 20.1398 52.3739 20.1398C52.7659 20.1398 53.1672 20.1305 53.5779 20.1118C53.9886 20.0931 54.3619 20.0558 54.6979 19.9998V16.9198C54.5112 16.9571 54.3152 16.9851 54.1099 17.0038C53.9046 17.0225 53.6899 17.0318 53.4659 17.0318C52.7939 17.0318 52.3459 16.9198 52.1219 16.6958C51.8979 16.4718 51.7859 16.0238 51.7859 15.3518V8.18381H54.6979V5.52381H51.7859Z" fill="#412672"/>
<path d="M55.7497 0.0078125V19.9998H59.7257V12.4118C59.7257 10.9371 59.9683 9.88248 60.4537 9.24781C60.939 8.59448 61.723 8.26781 62.8057 8.26781C63.7577 8.26781 64.4203 8.56648 64.7937 9.16381C65.167 9.74248 65.3537 10.6291 65.3537 11.8238V19.9998H69.3297V11.0958C69.3297 10.1998 69.2457 9.38781 69.0777 8.65981C68.9283 7.91315 68.6577 7.28781 68.2657 6.78381C67.8737 6.26115 67.3323 5.85981 66.6417 5.57981C65.9697 5.28115 65.1017 5.13181 64.0377 5.13181C63.291 5.13181 62.5257 5.32781 61.7417 5.71981C60.9577 6.09315 60.3137 6.69981 59.8097 7.53981H59.7257V0.0078125H55.7497Z" fill="#412672"/>
<path d="M81.2513 11.2078H74.7833C74.802 10.9278 74.858 10.6105 74.9513 10.2558C75.0633 9.90115 75.2407 9.56515 75.4833 9.24781C75.7447 8.93048 76.0807 8.66915 76.4913 8.46381C76.9207 8.23981 77.4527 8.12781 78.0873 8.12781C79.058 8.12781 79.7767 8.38915 80.2433 8.91181C80.7287 9.43448 81.0647 10.1998 81.2513 11.2078ZM74.7833 13.7278H85.2273C85.302 12.6078 85.2087 11.5345 84.9473 10.5078C84.686 9.48115 84.2567 8.56648 83.6593 7.76381C83.0807 6.96115 82.334 6.32648 81.4193 5.85981C80.5047 5.37448 79.4313 5.13181 78.1993 5.13181C77.098 5.13181 76.09 5.32781 75.1753 5.71981C74.2793 6.11181 73.5047 6.65315 72.8513 7.34381C72.198 8.01581 71.694 8.81848 71.3393 9.75181C70.9847 10.6851 70.8073 11.6931 70.8073 12.7758C70.8073 13.8958 70.9753 14.9225 71.3113 15.8558C71.666 16.7891 72.1607 17.5918 72.7953 18.2638C73.43 18.9358 74.2047 19.4585 75.1193 19.8318C76.034 20.1865 77.0607 20.3638 78.1993 20.3638C79.842 20.3638 81.242 19.9905 82.3993 19.2438C83.5567 18.4971 84.4153 17.2558 84.9753 15.5198H81.4753C81.3447 15.9678 80.99 16.3971 80.4113 16.8078C79.8327 17.1998 79.142 17.3958 78.3393 17.3958C77.2193 17.3958 76.3607 17.1065 75.7633 16.5278C75.166 15.9491 74.8393 15.0158 74.7833 13.7278Z" fill="#412672"/>
<path d="M86.7454 5.52381V19.9998H90.7214V13.4758C90.7214 12.8225 90.7868 12.2158 90.9174 11.6558C91.0481 11.0958 91.2628 10.6105 91.5614 10.1998C91.8788 9.77048 92.2894 9.43448 92.7934 9.19181C93.2974 8.94915 93.9134 8.82781 94.6414 8.82781C94.8841 8.82781 95.1361 8.84648 95.3974 8.88381C95.6588 8.90248 95.8828 8.93048 96.0694 8.96781V5.27181C95.7521 5.17848 95.4628 5.13181 95.2014 5.13181C94.6974 5.13181 94.2121 5.20648 93.7454 5.35581C93.2788 5.50515 92.8401 5.71981 92.4294 5.99981C92.0188 6.26115 91.6548 6.58781 91.3374 6.97981C91.0201 7.35315 90.7681 7.76381 90.5814 8.21181H90.5254V5.52381H86.7454Z" fill="#412672"/>
<path d="M101.604 16.3038V3.70381H104.74C105.823 3.70381 106.728 3.86248 107.456 4.17981C108.203 4.47848 108.8 4.91715 109.248 5.49581C109.696 6.07448 110.014 6.77448 110.2 7.59581C110.406 8.39848 110.508 9.30381 110.508 10.3118C110.508 11.4131 110.368 12.3465 110.088 13.1118C109.808 13.8771 109.435 14.5025 108.968 14.9878C108.502 15.4545 107.97 15.7905 107.372 15.9958C106.775 16.2011 106.159 16.3038 105.524 16.3038H101.604ZM97.2083 0.0078125V19.9998H105.832C107.363 19.9998 108.688 19.7478 109.808 19.2438C110.947 18.7211 111.89 18.0118 112.636 17.1158C113.402 16.2198 113.971 15.1558 114.344 13.9238C114.718 12.6918 114.904 11.3478 114.904 9.89181C114.904 8.23048 114.671 6.78381 114.204 5.55181C113.756 4.31981 113.122 3.29315 112.3 2.47181C111.498 1.65048 110.536 1.03448 109.416 0.623813C108.315 0.213146 107.12 0.0078125 105.832 0.0078125H97.2083Z" fill="#412672"/>
<path d="M126.446 11.2078H119.978C119.997 10.9278 120.053 10.6105 120.146 10.2558C120.258 9.90115 120.435 9.56515 120.678 9.24781C120.939 8.93048 121.275 8.66915 121.686 8.46381C122.116 8.23981 122.647 8.12781 123.282 8.12781C124.253 8.12781 124.971 8.38915 125.438 8.91181C125.924 9.43448 126.259 10.1998 126.446 11.2078ZM119.978 13.7278H130.422C130.497 12.6078 130.403 11.5345 130.142 10.5078C129.881 9.48115 129.451 8.56648 128.854 7.76381C128.275 6.96115 127.529 6.32648 126.614 5.85981C125.7 5.37448 124.626 5.13181 123.394 5.13181C122.293 5.13181 121.285 5.32781 120.37 5.71981C119.474 6.11181 118.7 6.65315 118.046 7.34381C117.393 8.01581 116.889 8.81848 116.534 9.75181C116.179 10.6851 116.002 11.6931 116.002 12.7758C116.002 13.8958 116.17 14.9225 116.506 15.8558C116.861 16.7891 117.355 17.5918 117.99 18.2638C118.625 18.9358 119.399 19.4585 120.314 19.8318C121.229 20.1865 122.256 20.3638 123.394 20.3638C125.037 20.3638 126.437 19.9905 127.594 19.2438C128.752 18.4971 129.61 17.2558 130.17 15.5198H126.67C126.539 15.9678 126.185 16.3971 125.606 16.8078C125.027 17.1998 124.337 17.3958 123.534 17.3958C122.414 17.3958 121.555 17.1065 120.958 16.5278C120.361 15.9491 120.034 15.0158 119.978 13.7278Z" fill="#412672"/>
<path d="M139.948 19.9998L144.848 5.52381H140.9L137.848 15.4078H137.792L134.74 5.52381H130.568L135.524 19.9998H139.948Z" fill="#412672"/>
</svg>
